<svg xmlns="http://www.w3.org/2000/svg" viewBox="0 0 222.2 29.74"><defs><style>.a{fill:#bbb;fill-rule:evenodd;}.b{fill:#fff;}</style></defs><path class="a" d="M32.63,8.61A7.77,7.77,0,0,0,17.18,7a7.94,7.94,0,0,0,3.9,7.58c.23,1.7-1.58,5.61-2.83,8.09l-.67-.17a3.7,3.7,0,0,0-2.78.91,48.52,48.52,0,0,1-5.32-4.3,4.4,4.4,0,0,0,.4-1.47A5,5,0,1,0,4.44,22a4.76,4.76,0,0,0,3.85-1.3,28.43,28.43,0,0,1,5.83,3.45,3.82,3.82,0,0,0-.57,1.53,3.69,3.69,0,0,0,3.28,4,3.65,3.65,0,0,0,2.5-6.57c.51-1.92,2.6-5.43,4.07-7.75a2.75,2.75,0,0,0,.68.11,7.8,7.8,0,0,0,8.55-6.9ZM22.32,25.7a2.26,2.26,0,0,1-.56.28A4.58,4.58,0,0,0,21,23.67c.06,0,.06-.06.12-.06a10.41,10.41,0,0,0,5-7,9.71,9.71,0,0,0,2.48-.8,12.62,12.62,0,0,1-6.34,9.91Zm-9.61,1.24a13.22,13.22,0,0,1-6.4-4,5.19,5.19,0,0,0,2.27-1.07,10.58,10.58,0,0,0,4.35,2.66,7.47,7.47,0,0,0-.28,1.13,9.36,9.36,0,0,0,.06,1.3Zm-9-15.73A12.84,12.84,0,0,1,9.65,3.57,13,13,0,0,1,18.14,2a8.51,8.51,0,0,0-1.36,2.27,10.13,10.13,0,0,0-5.94,1.3,10.43,10.43,0,0,0-4.64,5.6c-.17-.05-.4-.05-.63-.11A6.85,6.85,0,0,0,3.71,11.21Z"/><path class="b" d="M29.73,4.85a7.66,7.66,0,0,0-1-3.83,7.66,7.66,0,0,0-3.83-1A7.78,7.78,0,0,0,17.1,7.78a7.66,7.66,0,0,0,1,3.83,7.66,7.66,0,0,0,3.83,1A7.78,7.78,0,0,0,29.73,4.85Z"/><path class="b" d="M6.94,14.2a4.87,4.87,0,0,0-.33-1.72,4.74,4.74,0,0,0-1.72-.33A4.89,4.89,0,0,0,0,17a4.7,4.7,0,0,0,.33,1.72,4.92,4.92,0,0,0,1.72.33A4.89,4.89,0,0,0,6.94,14.2Z"/><path class="b" d="M17.66,23.29a3.5,3.5,0,0,0-.07-.65,3.33,3.33,0,0,0-3.93,3.94,3.39,3.39,0,0,0,.64.06A3.35,3.35,0,0,0,17.66,23.29Z"/><path class="b" d="M50.66,8.21V9.65H46.8V20.89H45.22V9.65H41.36V8.21Z"/><path class="b" d="M55.6,20.89H54L50.94,8.21h1.65l2.3,10,2.79-10h1.56l2.85,10,2.3-10H66L63,20.89h-1.6L58.47,11Z"/><path class="b" d="M75.43,8.21V9.65H69.37v4h5.51v1.44H69.37v4.41h6.06v1.43H67.79V8.21Z"/><path class="b" d="M86.33,8.21V20.89H84.78L79.31,11.3v9.59H77.73V8.21h1.5l5.52,9.68V8.21Z"/><path class="b" d="M97.28,8.21V9.65H93.42V20.89H91.84V9.65H88V8.21Z"/><path class="b" d="M99.59,8.21l2.89,5.51,2.88-5.51h1.86l-4,7.24v5.44h-1.58V15.45l-4-7.24Z"/><path class="b" d="M117.69,21c-2.81,0-4.59-1.69-4.59-5.79v-1.4c0-4.09,1.78-5.78,4.59-5.78s4.59,1.69,4.59,5.78v1.4C122.28,19.35,120.5,21,117.69,21Zm-3-5.79c0,3.14,1.06,4.35,3,4.35s3-1.21,3-4.35v-1.4c0-3.14-1.06-4.35-3-4.35s-3,1.21-3,4.35Z"/><path class="b" d="M133.36,8.21V20.89h-1.54l-5.48-9.59v9.59h-1.58V8.21h1.51l5.51,9.68V8.21Z"/><path class="b" d="M144.13,8.21V9.65h-6.06v4h5.51v1.44h-5.51v4.41h6.06v1.43h-7.64V8.21Z"/><path class="b" d="M151,20.89V8.21h4c2.81,0,4.6,1.58,4.6,5.68v1.32c0,4.1-1.79,5.68-4.6,5.68Zm7.06-5.68V13.89c0-3.14-1.07-4.24-3-4.24H152.6v9.81h2.46C157,19.46,158.08,18.35,158.08,15.21Z"/><path class="b" d="M169.78,8.21V9.65h-6.06v4h5.51v1.44h-5.51v4.41h6.06v1.43h-7.64V8.21Z"/><path class="b" d="M180.69,14.51v.74c0,4.1-1.85,5.79-4.66,5.79s-4.59-1.69-4.59-5.79v-1.4c0-4.09,1.78-5.78,4.59-5.78,2.46,0,4.15,1.3,4.55,4.09H179c-.4-1.89-1.4-2.66-3-2.66-1.95,0-3,1.21-3,4.35v1.4c0,3.14,1.06,4.35,3,4.35,1.78,0,2.9-1,3.07-3.65h-3V14.51Z"/><path class="b" d="M190.4,20.89l-2.65-5.35h-3v5.35h-1.58V8.21h4c2.92,0,4.61,1.22,4.61,3.68a3.23,3.23,0,0,1-2.5,3.38l2.83,5.62Zm-3.18-6.78c2.15,0,3-.66,3-2.22s-.88-2.24-3-2.24h-2.46v4.46Z"/><path class="b" d="M201.92,8.21V9.65h-6.07v4h5.52v1.44h-5.52v4.41h6.07v1.43h-7.65V8.21Z"/><path class="b" d="M211.86,8.21V9.65h-6.07v4h5.52v1.44h-5.52v4.41h6.07v1.43h-7.65V8.21Z"/><path class="b" d="M220.75,11a3.37,3.37,0,0,0-3-1.52c-1.47,0-2.46.66-2.46,2,0,1.51,1.13,2,3,2.35,2.44.43,3.93,1.31,3.93,3.66,0,1.65-1.1,3.55-4.26,3.55A5.11,5.11,0,0,1,213.42,19l1.3-.9a3.67,3.67,0,0,0,3.22,1.54c2.07,0,2.68-1,2.68-2s-.61-2-3-2.37-3.93-1.5-3.93-3.71c0-1.82,1.19-3.41,4.09-3.41A4.49,4.49,0,0,1,222,10.14Z"/></svg>