<svg xmlns="http://www.w3.org/2000/svg" viewBox="0 0 141.73 129.03"><defs><style>.a{isolation:isolate;}.b{fill:#414042;fill-rule:evenodd;}.c{opacity:0.7;mix-blend-mode:overlay;}.d{fill:#fff;}</style></defs><g class="a"><path class="b" d="M141.54,37.34a33.82,33.82,0,0,0-30-37.06c-18.4-1.73-35.1,11.54-37,29.94a34.43,34.43,0,0,0,16.92,32.9c1,7.38-6.85,24.32-12.25,35.12l-3-.74a15.88,15.88,0,0,0-12,3.93C57.34,97,48.5,89.4,41.14,82.77a19.17,19.17,0,0,0,1.72-6.39A21.48,21.48,0,1,0,19.28,95.53,20.66,20.66,0,0,0,36,89.89c6.88,2.46,17.18,9.08,25.27,15A15.55,15.55,0,0,0,73,128.93a15.68,15.68,0,0,0,17.18-14,15.47,15.47,0,0,0-6.37-14.49c2.21-8.35,11.3-23.57,17.68-33.63a13.16,13.16,0,0,0,2.94.48,33.81,33.81,0,0,0,37.07-30ZM96.85,111.49a10.82,10.82,0,0,1-2.45,1.23,20.11,20.11,0,0,0-3.2-10c.25,0,.25-.25.51-.25A45.1,45.1,0,0,0,113.56,72a43,43,0,0,0,10.8-3.45,54.84,54.84,0,0,1-27.51,43Zm-41.7,5.4A57.53,57.53,0,0,1,27.38,99.46,22.85,22.85,0,0,0,37.2,94.8a46,46,0,0,0,18.9,11.54,32.66,32.66,0,0,0-1.22,4.89,39.53,39.53,0,0,0,.27,5.66Zm-39-68.25A55.53,55.53,0,0,1,41.86,15.5,56.55,56.55,0,0,1,78.7,8.87a36.14,36.14,0,0,0-5.91,9.83A44,44,0,0,0,47,24.34,45,45,0,0,0,26.9,48.64c-.75-.25-1.73-.25-2.72-.48A29.63,29.63,0,0,0,16.1,48.64Z"/><g class="c"><path class="d" d="M129,21a33.49,33.49,0,0,0-4.42-16.63,33.72,33.72,0,0,0-46,46A33.73,33.73,0,0,0,129,21Z"/><path class="d" d="M30.1,61.6a21.51,21.51,0,0,0-1.42-7.47A21.07,21.07,0,0,0,0,73.91a20.84,20.84,0,0,0,1.42,7.47,21.16,21.16,0,0,0,7.47,1.44A21.22,21.22,0,0,0,30.1,61.6Z"/><path class="d" d="M76.61,101a14.12,14.12,0,0,0-.28-2.79,13.54,13.54,0,0,0-2.79-.29A14.56,14.56,0,0,0,59,112.52a14.35,14.35,0,0,0,.28,2.79,14.89,14.89,0,0,0,2.78.28A14.57,14.57,0,0,0,76.61,101Z"/></g></g></svg>